<?xml version="1.0" encoding="UTF-8"?>
<svg width="256px" height="256px" viewBox="0 0 256 256" version="1.1" xmlns="http://www.w3.org/2000/svg" xmlns:xlink="http://www.w3.org/1999/xlink">
    <title>Decoration Pattern 1 Dark</title>
    <g id="Decoration-Pattern-1-Dark" stroke="none" stroke-width="1" fill="none" fill-rule="evenodd">
        <path d="M81.4659984,19.5538946 C127.834516,4.32952014 214.146778,-24.007283 245.683244,40.0489512 C253.558182,56.0630098 255.136841,76.0438535 250.125517,96.3368978 C246.160513,112.424415 238.303931,128.750675 225.436025,147.721457 C212.935249,166.159662 197.534145,184.708056 176.974866,206.102985 C160.931285,222.796539 146.760068,235.798779 129.743592,244.926058 C116.086357,252.253592 102.025278,256 88.7351723,256 C82.2736844,256 76.014118,255.118492 70.0666122,253.337112 C52.0772426,247.956241 35.6114624,233.448092 24.8729102,213.522342 C15.0338264,195.24942 10.5181275,174.607446 7.12217504,155.030626 C1.79879016,124.39823 -1.23003228,89.4133886 16.5574158,62.123376 C32.362362,37.8635464 61.1820664,26.2019327 81.4659984,19.5538946 Z M244.031159,40.857 C213.19224,-21.7484192 127.871229,6.23945373 82.0350499,21.2985455 C62.0081089,27.8731246 33.5922475,39.3510909 18.0993618,63.133437 C0.642330682,89.890872 3.67115312,124.434959 8.9394685,154.718426 C12.3170644,174.148327 16.7776938,194.606654 26.4882821,212.640835 C37.0065564,232.144195 53.0684935,246.340144 70.5989507,251.574096 C88.0926948,256.808049 109.331165,253.79623 128.86248,243.30996 C145.677034,234.29287 159.738113,221.400818 175.653198,204.817453 C196.139051,183.514347 211.466729,165.039413 223.930792,146.693032 C236.670203,127.905896 244.435002,111.763285 248.344936,95.8961439 C253.264478,76.0254887 251.722532,56.4853989 244.031159,40.857 Z M89.7080668,47.1377432 C127.467386,33.2907247 181.123435,19.1865997 210.952747,56.4853989 C217.652869,64.8413584 221.012108,74.0788256 221.012108,84.032518 C221.012108,88.8624462 220.222779,93.8760219 218.64412,99.0365155 C214.018282,114.187431 204.674824,128.438474 196.139051,140.375559 C185.914481,154.644967 174.27646,168.620538 160.545799,183.091958 C150.46808,193.725146 139.325685,204.560346 126.145718,211.85115 C115.792653,217.599316 104.705327,220.59277 94.3339047,220.59277 C90.0751967,220.59277 85.9266278,220.096921 82.0166934,219.068496 C68.3043882,215.48737 55.766899,205.221477 47.6349697,190.896975 C39.9435963,177.251969 36.6944959,161.495017 34.5284289,147.850011 C34.271438,146.325737 34.05116,144.783098 33.830882,143.240459 C31.3527545,125.518479 29.5538176,99.6241874 42.6052888,79.55152 C51.5081911,65.8697842 66.4687383,55.5671616 89.7080668,47.1377432 Z M156.232021,34.4293389 C133.763666,34.4293389 109.900216,41.6834136 90.3505442,48.8640293 C67.4967022,57.1465298 52.8115026,67.2104106 44.1472347,80.5432162 C31.4261805,100.120036 33.206761,125.555209 35.6481754,142.983353 C35.8684534,144.525991 36.0887314,146.050265 36.3273659,147.574539 C38.4750764,161.035898 41.6874638,176.609203 49.2319851,189.978738 C57.12528,203.899215 69.2405697,213.852908 82.4756059,217.287115 C95.4720076,220.684593 111.075032,218.131894 125.24625,210.253418 C138.205939,203.072802 149.238195,192.34779 159.224131,181.824791 C172.899723,167.42683 184.482674,153.506352 194.652175,139.292039 C203.096165,127.483507 212.347841,113.397747 216.900252,98.5039379 C221.544447,83.2979282 219.066319,69.5427334 209.52094,57.6240132 C202.618896,48.9925825 194.376827,43.1893228 185.308717,39.5531031 C176.258962,35.9168833 166.383166,34.4293389 156.232021,34.4293389 Z M97.9317786,74.7399565 C121.905367,64.070039 164.455733,57.054706 178.718733,72.1872568 C188.374252,81.6818305 192.3209,88.8624462 187.162723,101.772863 C182.757163,112.79171 174.056182,123.828923 167.080713,132.699095 L167.080713,132.699095 L166.823722,133.02966 C159.921678,141.789644 152.395513,151.1373 144.116732,160.099296 C137.838809,166.875887 130.881695,173.854491 122.547845,178.776243 C115.38881,183.055229 107.458802,185.332457 100.02442,185.332457 C97.9684916,185.332457 95.9492766,185.14881 93.9851312,184.79988 C84.4764644,183.055229 75.8856226,177.049957 70.4153857,168.271608 C64.8900793,159.419801 62.9626468,148.878436 61.9163264,140.669395 C61.7878309,139.696063 61.6776919,138.704367 61.5675529,137.694306 C59.7686159,120.449809 62.0998913,107.117004 68.6715182,96.9612992 C76.16097,85.3547797 88.9554503,78.7251064 97.9317786,74.7399565 Z M149.917385,65.373936 C133.011049,65.373936 112.800543,70.1304052 98.6843951,76.4111484 C84.7518119,82.6000678 75.7204141,89.4501181 70.2134642,97.9529955 C63.8804718,107.75977 61.6409789,120.688551 63.4032028,137.510658 C63.4949853,138.48399 63.6234808,139.475686 63.7336198,140.449018 C64.7615838,148.456047 66.6339468,158.75867 71.9756881,167.298277 C77.1705775,175.635871 85.3208633,181.347307 94.3155482,183.000134 C102.888033,184.561138 112.837256,182.449192 121.611663,177.196875 C129.743592,172.385311 136.590567,165.535261 142.776707,158.850493 C151.000419,149.943592 158.508227,140.632665 165.373558,131.891046 L165.373558,131.891046 L165.630549,131.560481 C172.550949,122.782132 181.141791,111.855108 185.455569,101.093367 C189.787703,90.2581669 187.91534,83.812141 177.415422,73.4911538 L177.415422,73.4911538 L177.397065,73.472789 C171.981898,67.7062588 161.757328,65.373936 149.917385,65.373936 Z M140.941057,89.3399296 C150.504793,88.5502455 156.011743,90.03779 157.755611,93.8576571 C160.712659,100.281094 151.746757,111.243107 141.352864,121.836942 L140.650108,122.550519 C140.532661,122.669338 140.415064,122.788095 140.297331,122.906786 L139.589424,123.618064 C138.880129,124.328422 138.167023,125.035854 137.453322,125.738856 C134.901769,128.254826 132.570493,131.119727 130.331,133.892804 C126.935048,138.061601 123.428957,142.358951 119.023397,145.664606 C114.984967,148.694789 109.698295,150.567993 104.68697,150.567993 C100.299767,150.567993 96.1328416,149.135543 93.2508712,145.738065 C90.5341092,142.560964 89.2124413,137.969777 89.3042238,132.074694 C89.4510758,124.728795 91.8557772,118.576605 95.2333731,113.56303 C98.5926126,108.549454 102.90639,104.674493 106.834681,101.827957 C116.251565,94.9962714 129.009332,90.3316259 140.941057,89.3399296 Z M156.085169,94.6289765 C154.745145,91.6722524 149.568612,90.4785439 141.087909,91.1764042 C107.110028,93.9862104 91.4335777,116.81359 91.1398737,132.111423 C91.0480912,137.529023 92.2229072,141.716185 94.6459651,144.544356 C100.152915,150.990382 111.019963,149.374284 117.922007,144.195426 C122.144002,141.03669 125.576667,136.812798 128.899193,132.735825 C131.175399,129.926018 133.543388,127.024388 136.168367,124.434959 C138.574904,122.069213 142.494979,118.210464 146.253521,113.950063 L146.845389,113.274189 C147.042067,113.047891 147.238055,112.82064 147.433106,112.592594 L148.015208,111.906233 C153.417397,105.480925 157.894386,98.5575629 156.085169,94.6289765 Z" id="Combined-Shape" fill="#575445"></path>
    </g>
</svg>